<svg width="59" height="60" viewBox="0 0 59 60" fill="none" xmlns="http://www.w3.org/2000/svg">
<path d="M11.7996 16.5C10.8264 16.5 9.96327 16.9792 9.42596 17.7183C9.64848 17.7927 9.86068 17.9117 10.0496 18.0763L26.8599 32.7294C28.3789 34.0535 30.6204 34.0535 32.1394 32.7294L48.9498 18.0763C49.1386 17.9117 49.3508 17.7927 49.5733 17.7184C49.036 16.9793 48.1728 16.5 47.1996 16.5H11.7996Z" fill="#FAFAFA"/>
<path d="M50.1496 21.9695L34.5392 35.5766C31.6393 38.1044 27.3601 38.1044 24.4601 35.5766L8.84961 21.9694V40.5C8.84961 42.1569 10.1704 43.5 11.7996 43.5H47.1996C48.8289 43.5 50.1496 42.1569 50.1496 40.5V21.9695Z" fill="#FAFAFA"/>
</svg>
