<svg width="51" height="52" viewBox="0 0 51 52" fill="none" xmlns="http://www.w3.org/2000/svg">
<path d="M17.1365 27.9067C17.1365 29.8133 18.584 31.3733 20.1924 31.3733C21.8007 31.3733 23.2483 29.8133 23.2483 27.9067C23.2483 26 21.8007 24.44 20.1924 24.44C18.584 24.44 17.1365 26 17.1365 27.9067Z" fill="#FAFAFA"/>
<path d="M27.7517 27.9067C27.7517 29.8133 29.1993 31.3733 30.8076 31.3733C32.416 31.3733 33.8635 29.8133 33.8635 27.9067C33.8635 26 32.416 24.44 30.8076 24.44C29.1993 24.44 27.7517 26 27.7517 27.9067Z" fill="#FAFAFA"/>
<path fill-rule="evenodd" clip-rule="evenodd" d="M4.22975 8.57359C3.1875 10.6592 3.1875 13.3895 3.1875 18.85V33.15C3.1875 38.6105 3.1875 41.3408 4.22975 43.4264C5.14654 45.261 6.60942 46.7525 8.40872 47.6873C10.4542 48.75 13.132 48.75 18.4875 48.75H32.5125C37.868 48.75 40.5458 48.75 42.5913 47.6873C44.3906 46.7525 45.8535 45.261 46.7702 43.4264C47.8125 41.3408 47.8125 38.6105 47.8125 33.15V18.85C47.8125 13.3895 47.8125 10.6592 46.7702 8.57359C45.8535 6.73901 44.3906 5.24745 42.5913 4.31269C40.5458 3.25 37.868 3.25 32.5125 3.25H18.4875C13.132 3.25 10.4542 3.25 8.40872 4.31269C6.60942 5.24745 5.14654 6.73901 4.22975 8.57359ZM30.3251 13C33.381 13.1733 36.2761 14.2133 38.6886 16.2933C41.4229 21.84 42.8704 28.08 43.0312 34.4933C40.6187 37.2667 37.2411 39 33.7027 39C33.7027 39 32.5768 37.6133 31.7726 36.4C33.8635 35.88 35.7936 34.6667 37.0803 32.76C35.9544 33.4533 34.8286 34.1467 33.7027 34.6667C32.2552 35.36 30.8076 35.7067 29.3601 36.0533C28.0734 36.2267 26.7867 36.4 25.5 36.4C24.2133 36.4 22.9266 36.2267 21.6399 36.0533C20.1924 35.7067 18.7448 35.36 17.2973 34.6667C16.1714 34.1467 15.0456 33.4533 13.9197 32.76C15.2064 34.6667 17.1365 35.88 19.2274 36.4C18.4232 37.6133 17.2973 39 17.2973 39C13.7589 39 10.3813 37.2667 7.96875 34.4933C8.12959 28.08 9.57712 21.84 12.3114 16.2933C14.7239 14.2133 17.619 13.1733 20.6749 13L21.1574 13.52C18.4232 14.2133 16.0106 15.6 13.7589 17.5067C16.4931 15.9467 19.549 14.9067 22.7658 14.56C23.7308 14.3867 24.535 14.3867 25.5 14.3867C26.465 14.3867 27.2692 14.3867 28.2342 14.56C31.451 14.9067 34.5069 15.9467 37.2411 17.5067C34.9894 15.6 32.5768 14.2133 29.8426 13.52L30.3251 13Z" fill="#FAFAFA"/>
</svg>
