<svg width="154" height="59" viewBox="0 0 154 59" fill="none" xmlns="http://www.w3.org/2000/svg">
<path d="M41.8 51H74L75.04 45.16H54.4L77.84 27.28L78.52 23H47.04L46 28.84H66.04L42.48 46.88L41.8 51ZM88.6838 51.64C94.0038 51.64 96.4838 51 100.204 49.68L101.164 44.2C98.7238 45.16 96.4838 46.4 91.6038 46.4C87.2838 46.4 85.2838 45.24 85.0438 42.72H102.284L102.884 39.44C103.724 34 99.6038 30.36 92.4438 30.36C85.2038 30.36 79.6438 34.6 78.5238 41C77.4038 47.4 81.4438 51.64 88.6838 51.64ZM85.4038 39.92C86.2438 37.28 88.6838 35.8 91.4838 35.8C94.4838 35.8 96.5238 37.16 96.2438 39.68L85.4038 39.92ZM104.201 51H111.081L112.281 44.28C113.401 37.84 117.041 36.2 124.841 36.2L125.881 30.36C119.001 30.36 115.521 32.68 113.441 38.44H113.041L115.161 31H107.721L104.201 51ZM135.574 51.64C143.214 51.64 149.014 47.4 150.134 41C151.254 34.6 146.974 30.36 139.334 30.36C131.694 30.36 125.894 34.6 124.774 41C123.654 47.4 127.934 51.64 135.574 51.64ZM136.534 46.2C132.854 46.2 130.694 44.12 131.254 41C131.814 37.88 134.654 35.8 138.374 35.8C142.094 35.8 144.214 37.88 143.654 41C143.134 44.12 140.254 46.2 136.534 46.2Z" fill="#E6951B"/>
<path d="M33.3009 32.4109C32.9808 32.1721 32.6043 31.9333 32.1712 31.7286C30.9661 31.1486 29.4033 30.7904 28.01 31.4386C20.3843 34.9355 14.6414 39.5072 14.6414 39.5072C14.6414 39.5072 13.7376 39.8142 13.9824 38.1425C14.2272 36.4537 23.4157 16.5296 23.4157 16.5296C23.4157 16.5296 24.7338 13.4932 24.8091 10.9685C24.8091 10.9685 24.8091 0.307051 20.0453 0C19.9512 0 19.8571 0 19.7629 0C19.7629 0 19.3863 0.0170568 18.8215 0.102349C18.6708 0.119407 18.5202 0.153525 18.3507 0.2047C17.8612 0.30705 17.3151 0.477633 16.7691 0.750567C16.6185 0.818801 16.336 0.989384 16.1666 1.09173C16.1477 1.10879 16.1289 1.10879 16.1289 1.12585C16.0913 1.14291 16.0348 1.19409 15.9971 1.2282C15.9595 1.26232 15.79 1.4329 15.7147 1.50113C15.6582 1.56937 15.5829 1.6376 15.5076 1.72289C15.4699 1.77407 15.4134 1.82525 15.3758 1.87642C15.3193 1.94465 15.2628 2.01289 15.2063 2.08112C14.9803 2.35405 14.3402 3.42873 14.1519 3.82107C14.0954 3.92342 14.0389 4.04283 13.9824 4.16224C13.5493 5.04928 13.0786 6.08984 12.6456 7.06216C11.2334 10.2691 9.1622 15.0455 7.22281 19.6001C4.8127 25.2293 2.60971 30.5515 2.04484 32.3256C1.367 34.475 0.764474 36.9484 0.387895 39.6095C0.0113152 42.2706 -0.120486 45.1023 0.12429 47.9681C0.237264 49.2987 0.331407 50.3563 0.425552 51.2263C0.726816 54.1091 0.990422 54.8426 1.47998 55.9514C1.8189 56.7191 2.6662 57.9473 4.13486 58.5784C5.3964 59.1243 7.12867 59.2437 9.40697 58.3055C11.1581 57.572 13.4175 56.5826 15.7712 55.4568C20.0642 53.4098 24.6396 50.9022 27.0685 48.7869C30.8343 45.5117 33.3951 42.3389 34.1859 38.859C34.4307 37.7672 34.5625 36.7096 34.5437 35.7373C34.5437 35.2767 34.506 34.8332 34.4495 34.4238C34.3554 34.0144 33.7528 32.7521 33.3009 32.4109Z" fill="#E6951B"/>
<path d="M33.3009 32.4109C32.9808 32.1721 32.6043 31.9333 32.1712 31.7286C30.9661 31.1486 29.4033 30.7904 28.01 31.4386C20.3843 34.9355 14.6414 39.5072 14.6414 39.5072C14.6414 39.5072 13.7376 39.8142 13.9824 38.1425C14.2272 36.4537 23.4157 16.5296 23.4157 16.5296C23.4157 16.5296 24.7338 13.4932 24.8091 10.9685C24.8091 10.9685 24.8091 0.307051 20.0453 0C19.9512 0 19.8571 0 19.7629 0C19.7629 0 19.3863 0.0170568 18.8215 0.102349C18.6708 0.119407 18.5202 0.153525 18.3507 0.2047C17.8612 0.30705 17.3151 0.477633 16.7691 0.750567C16.6185 0.818801 16.336 0.989384 16.1666 1.09173C16.1477 1.10879 16.1289 1.10879 16.1289 1.12585C16.0913 1.14291 16.0348 1.19409 15.9971 1.2282C15.9595 1.26232 15.79 1.4329 15.7147 1.50113C15.6582 1.56937 15.5829 1.6376 15.5076 1.72289C15.4699 1.77407 15.4134 1.82525 15.3758 1.87642C15.3193 1.94465 15.2628 2.01289 15.2063 2.08112C14.9803 2.35405 14.3402 3.42873 14.1519 3.82107C14.0954 3.92342 14.0389 4.04283 13.9824 4.16224C13.5493 5.04928 13.0786 6.08984 12.6456 7.06216C11.2334 10.2691 9.1622 15.0455 7.22281 19.6001C4.8127 25.2293 2.60971 30.5515 2.04484 32.3256C1.367 34.475 0.764474 36.9484 0.387895 39.6095C0.0113152 42.2706 -0.120486 45.1023 0.12429 47.9681C0.237264 49.2987 0.331407 50.3563 0.425552 51.2263C0.726816 54.1091 0.990422 54.8426 1.47998 55.9514C1.8189 56.7191 2.6662 57.9473 4.13486 58.5784C5.3964 59.1243 7.12867 59.2437 9.40697 58.3055C11.1581 57.572 13.4175 56.5826 15.7712 55.4568C20.0642 53.4098 24.6396 50.9022 27.0685 48.7869C30.8343 45.5117 33.3951 42.3389 34.1859 38.859C34.4307 37.7672 34.5625 36.7096 34.5437 35.7373C34.5437 35.2767 34.506 34.8332 34.4495 34.4238C34.3554 34.0144 33.7528 32.7521 33.3009 32.4109Z" fill="#E6951B"/>
<path d="M34.1486 29.1699C38.4849 29.1699 42.0002 24.1904 42.0002 18.0478C42.0002 11.9053 38.4849 6.92578 34.1486 6.92578C29.8122 6.92578 26.2969 11.9053 26.2969 18.0478C26.2969 24.1904 29.8122 29.1699 34.1486 29.1699Z" fill="#D3CED9"/>
</svg>
